<?xml version="1.0" encoding="utf-8"?>
<!-- Generator: Adobe Illustrator 22.0.1, SVG Export Plug-In . SVG Version: 6.00 Build 0)  -->
<svg version="1.1"
	 id="svg2" inkscape:version="0.48.3.1 r9886" sodipodi:docname="muscular_system_front.svg" xmlns:cc="http://creativecommons.org/ns#" xmlns:dc="http://purl.org/dc/elements/1.1/" xmlns:inkscape="http://www.inkscape.org/namespaces/inkscape" xmlns:rdf="http://www.w3.org/1999/02/22-rdf-syntax-ns#" xmlns:sodipodi="http://sodipodi.sourceforge.net/DTD/sodipodi-0.dtd" xmlns:svg="http://www.w3.org/2000/svg"
	 xmlns="http://www.w3.org/2000/svg" xmlns:xlink="http://www.w3.org/1999/xlink" x="0px" y="0px" viewBox="0 0 200 369"
	 style="enable-background:new 0 0 200 369;" xml:space="preserve">
<style type="text/css">
	.st0{opacity:0.52;fill:#FC0000;enable-background:new    ;}
</style>
<sodipodi:namedview  bordercolor="#666666" borderopacity="1.0" fit-margin-bottom="0" fit-margin-left="0" fit-margin-right="0" fit-margin-top="0" height="524.41px" id="base" inkscape:current-layer="layer1" inkscape:cx="93.552734" inkscape:cy="165.08135" inkscape:document-units="px" inkscape:pageopacity="0" inkscape:pageshadow="2" inkscape:window-height="624" inkscape:window-maximized="0" inkscape:window-width="910" inkscape:window-x="493" inkscape:window-y="165" inkscape:zoom="0.98994949" pagecolor="#ffffff" showgrid="false">
	</sodipodi:namedview>
<g>
	<path class="st0" d="M58,138.1c0,0-1.1,3.4-1.3,4s-3.1,7-3.4,7.5c-0.4,0.5-7.2,13.3-7.6,14.1c-0.5,0.8-8.1,13.1-8.7,14.2
		c-0.6,1.2-0.8,3.2-1.4,3.1s-3.8-3.5-4.7-3.4c-0.8,0.1-3.4-3.6-5.9-1.5s-2.5,2.1-2.5,2.1s1.3-9.9,3.1-13.3
		c1.8-3.4,8.7-24.3,8.9-24.5s6.3-13.6,7.3-14.7s3.4-1.5,3.4-1.1s-0.6,11.3,0.4,11.9s3.1-2.7,5,2.2s3.1,2.4,3.3,2.3
		S58,138.1,58,138.1z"/>
	<path class="st0" d="M138.5,134.1c0,0,1.1,3.4,1.3,4s3.1,7,3.4,7.5c0.4,0.5,7.2,13.3,7.6,14.1c0.5,0.8,8.1,13.1,8.7,14.2
		c0.6,1.2,0.8,3.2,1.4,3.1c0.7-0.1,3.8-3.5,4.7-3.4c0.8,0.1,3.4-3.6,5.9-1.5s2.5,2.1,2.5,2.1s-1.3-9.9-3.1-13.3
		c-1.8-3.4-8.7-24.3-8.9-24.5s-6.3-13.6-7.3-14.7s-3.4-1.5-3.4-1.1s0.6,11.3-0.4,11.9s-3.1-2.7-5,2.2s-3.1,2.4-3.3,2.3
		S138.5,134.1,138.5,134.1z"/>
</g>
</svg>