<?xml version="1.0" encoding="UTF-8" standalone="no"?>
<!-- Created with Inkscape (http://www.inkscape.org/) -->

<svg
   xmlns:dc="http://purl.org/dc/elements/1.1/"
   xmlns:cc="http://creativecommons.org/ns#"
   xmlns:rdf="http://www.w3.org/1999/02/22-rdf-syntax-ns#"
   xmlns:svg="http://www.w3.org/2000/svg"
   xmlns="http://www.w3.org/2000/svg"
   xmlns:sodipodi="http://sodipodi.sourceforge.net/DTD/sodipodi-0.dtd"
   xmlns:inkscape="http://www.inkscape.org/namespaces/inkscape"
   width="200"
   height="369.03"
   id="svg2"
   version="1.1"
   inkscape:version="0.92.2 (5c3e80d, 2017-08-06)"
   sodipodi:docname="muscle-17.svg">
  <defs
     id="defs4" />
  <sodipodi:namedview
     id="base"
     pagecolor="#ffffff"
     bordercolor="#666666"
     borderopacity="1.0"
     inkscape:pageopacity="0.0"
     inkscape:pageshadow="2"
     inkscape:zoom="1.979899"
     inkscape:cx="137.3491"
     inkscape:cy="184.515"
     inkscape:document-units="px"
     inkscape:current-layer="layer1"
     showgrid="false"
     fit-margin-top="0"
     fit-margin-left="0"
     fit-margin-right="0"
     fit-margin-bottom="0"
     inkscape:window-width="1280"
     inkscape:window-height="800"
     inkscape:window-x="0"
     inkscape:window-y="23"
     inkscape:window-maximized="0" />
  <metadata
     id="metadata7">
    <rdf:RDF>
      <cc:Work
         rdf:about="">
        <dc:format>image/svg+xml</dc:format>
        <dc:type
           rdf:resource="http://purl.org/dc/dcmitype/StillImage" />
        <dc:title></dc:title>
      </cc:Work>
    </rdf:RDF>
  </metadata>
  <g
     inkscape:label="Ebene 1"
     inkscape:groupmode="layer"
     id="layer1"
     transform="translate(-54.28571,-335.71492)">
    <path
       id="path2992-9-5-1-4"
       transform="translate(54.28571,335.71492)"
       style="display:inline;opacity:0.52424239;fill:#ff9955;fill-opacity:1;stroke:none;stroke-width:4.14060783"
       d="m 63.441406,59.882812 c -0.05982,0.03269 -0.116214,0.05573 -0.173828,0.08203 -0.04785,0.16158 -0.103814,0.318169 -0.15039,0.480468 0.258212,-0.04982 0.302963,-0.203887 0.324218,-0.5625 z m 7.671875,0.375 c -0.597548,0.405674 -1.396124,0.675782 -2.423828,0.675782 h -3.029297 c -0.21045,0 -0.424829,-0.0429 -0.630859,0 -0.0423,0.009 0.02732,0.0821 0.04102,0.123047 -0.364968,0.099 -0.729173,0.203835 -1.095703,0.296875 -0.08072,0.02047 -0.33459,0.08081 -0.58789,0.132812 -0.300199,0.172203 -0.597139,0.310088 -0.896485,0.396484 -0.02997,0.04175 -0.04727,0.09077 -0.08008,0.13086 -0.125425,0.153257 -0.29843,0.250787 -0.484375,0.328125 -0.151104,0.132584 -0.320016,0.249643 -0.472656,0.380859 -0.29252,0.154795 -0.584434,0.310056 -0.876953,0.464844 -0.01273,0.02604 -0.02311,0.05516 -0.03711,0.08008 -0.382759,0.681254 -1.224412,0.950326 -1.857421,1.253906 0.15354,-0.0492 0.304707,-0.106684 0.460937,-0.146484 0.48268,-0.12297 -0.878432,0.490313 -1.357422,0.626953 -0.16927,0.04829 -0.345931,0.06181 -0.523437,0.06445 -0.04275,0.02016 -0.09811,0.04318 -0.150391,0.06641 -0.009,0.0094 -0.0226,0.02843 -0.03125,0.03711 -0.34562,0.346802 -0.826512,0.504226 -1.294922,0.679687 -0.279088,0.249502 -0.607527,0.433903 -0.966797,0.550782 -0.178136,0.306534 -0.451973,0.568576 -0.939453,0.828125 -0.07519,0.04003 -0.160225,0.0574 -0.240234,0.08594 -0.07665,0.04848 -0.16076,0.09082 -0.320313,0.152344 -0.1835,0.07077 -0.755268,0.213519 -0.574218,0.136719 0.288408,-0.122344 0.60028,-0.184116 0.894531,-0.289063 0.09552,-0.06042 0.172131,-0.127763 0.287109,-0.234375 0.120093,-0.160543 0.220048,-0.355992 0.308594,-0.558594 -0.09628,0.01112 -0.189527,0.03506 -0.287109,0.03711 -0.165334,0.196048 -0.339975,0.382024 -0.539063,0.542968 -0.220204,0.178016 -0.543531,0.02728 -0.835937,-0.07227 -0.250639,0.261067 -0.489046,0.488948 -0.650391,0.615234 -0.312659,0.270927 -0.534058,0.462461 -0.816406,0.613281 -0.06156,0.09674 -0.128066,0.17376 -0.197266,0.236329 -0.09303,0.13376 -0.237309,0.280856 -0.376953,0.410156 -0.216392,0.477439 -0.358985,0.788204 -0.501953,1.087891 0.002,0.05698 0.0027,0.01096 0.0059,0.08789 -0.03133,0.03673 -0.06591,0.071 -0.09766,0.107422 -0.262441,0.532311 -0.457856,0.814067 -0.722656,0.976562 -0.09162,0.298053 -0.195386,0.592827 -0.326172,0.875 -0.0068,0.01466 -0.03316,0.03163 -0.04297,0.04688 -0.05479,0.20259 -0.124961,0.418032 -0.201172,0.642578 -0.04989,0.164315 -0.09778,0.323312 -0.146484,0.488281 0.0235,0.813255 0.03667,1.0865 -0.488281,1.599609 -0.07476,0.730151 -0.406259,1.125414 -0.9375,1.464844 0.04278,0.147475 0.05969,0.287791 -0.0332,0.396484 -0.122646,0.143509 -0.259435,0.271322 -0.402343,0.394532 -0.04187,0.111915 -0.0883,0.22174 -0.144531,0.322265 0.02741,0.312258 0.02715,0.62977 -0.02148,0.958985 -0.0225,0.1522 -0.115145,0.605185 -0.0918,0.453125 0.0185,-0.1205 0.04576,-0.239555 0.06836,-0.359375 -0.172426,0.312184 -0.351523,0.620268 -0.529297,0.929687 0.128066,0.697714 0.09835,1.126685 -0.421875,1.904297 0.04272,0.744529 -0.02751,1.512707 -0.05859,2.242188 -0.177156,0.137917 -0.365104,0.265438 -0.550781,0.394531 0.08861,0.459631 0.05078,0.869804 0.002,1.482422 -0.0062,0.0762 0.02023,-0.155397 0.05664,-0.222657 0.01736,-0.0321 -0.0014,0.07292 -0.002,0.109375 -0.0187,0.03752 -0.03628,0.0756 -0.05469,0.113282 -0.146866,0.300756 -0.284688,0.60535 -0.427734,0.908203 0.01466,0.484665 -0.03053,0.969139 -0.01953,1.457031 0.0082,0.35444 0.0062,0.709983 0.0039,1.064453 3.55e-4,0.50516 1.55e-4,1.010465 0,1.515625 -1.76e-4,0.294 -1e-5,0.586862 0,0.880859 -2.7e-5,0.289722 0,0.579421 0,0.869141 v 0.203125 c 10e-7,0.16334 0.07104,0.723664 0,0.871094 -0.187899,0.389939 -0.368871,0.702545 -0.541015,0.980469 0.02515,0.174138 0.02555,0.18568 0.06836,0.458984 -0.0512,1.01571 -0.0506,0.20428 -0.03125,0.90625 0.0053,0.35123 -0.0033,0.703444 0,1.054687 0.0018,0.179862 8.42e-4,0.359213 0,0.539063 -0.01024,2.18748 -0.983245,3.413675 -2.072265,3.681645 0.842148,2.44833 1.730399,4.71471 2.664062,6.76367 0.09778,-0.36627 0.182222,-0.55366 0.408203,-0.65039 -0.06811,-0.28864 -0.271282,-0.60302 -0.121094,-0.84766 0.139424,-0.22709 0.313875,-0.42853 0.5,-0.61914 -0.107598,-0.51236 0.113721,-0.75019 0.554688,-1.16602 -0.0071,-0.24527 0.06896,-0.52186 0.279297,-0.94336 0.11948,-0.2394 0.257679,-0.49438 0.480469,-0.64257 0.0062,-0.004 0.01898,-0.0132 0.02539,-0.0176 0.08681,-0.25466 0.183105,-0.23181 0.53125,-0.38477 0.02382,-0.0178 0.04162,-0.0281 0.06445,-0.0449 -0.57678,-0.55027 -0.790921,-1.61327 -0.179687,-3.052733 0.27243,-0.64158 0.549296,-1.281971 0.816406,-1.925781 0.16742,-0.40355 0.329328,-0.809087 0.486328,-1.216797 0.0336,-0.0873 0.01204,-0.210278 0.08594,-0.267578 0.01844,-0.01429 0.03636,-0.03391 0.05469,-0.04883 -0.0035,0.04644 -0.02603,0.17325 -0.0078,0.132813 0.0046,-0.0104 0.0091,-0.02084 0.01367,-0.03125 0.01161,-0.05727 0.01423,-0.07961 0.02539,-0.130859 -0.01034,0.0086 -0.02087,0.01889 -0.03125,0.02734 0.176813,-0.617526 0.114112,-0.407978 0.03125,-0.02734 0.01447,-0.01209 0.02856,-0.02663 0.04297,-0.03906 0.213524,-0.495847 0.419518,-0.996122 0.613281,-1.5 0.0925,-0.0841 -0.07048,-0.132058 -0.05078,-0.197265 0.196696,-0.652543 0.321023,-0.886121 0.53125,-1.246094 0.20843,-1.02791 0.502315,-0.959818 1.132812,-1.960938 0.0352,-0.0558 -0.03215,-0.142618 0.002,-0.199218 0.273509,-0.457144 0.421602,-0.584574 0.511718,-0.642579 0.03753,-0.09272 0.08047,-0.196907 0.101563,-0.253906 0.0063,0.05657 0.0043,0.06664 0.0059,0.09375 0.02438,-0.0614 0.05691,-0.118698 0.08203,-0.179687 0.018,-0.05497 0.04617,-0.110869 0.07617,-0.166016 0.03973,-0.08678 0.07185,-0.177945 0.121094,-0.259766 0.04367,-0.07258 0.211825,-0.225131 0.378906,-0.367187 0.01378,-0.0142 0.02711,-0.02875 0.04102,-0.04297 -0.06183,-0.210073 0.22076,-0.579789 0.480469,-0.830078 0.08711,-0.23012 0.133799,-0.324508 0.234375,-0.623047 0.14351,-0.42597 0.61923,-0.882949 0.93164,-1.230469 -0.08121,0.380988 -0.306552,1.123684 -0.441406,1.638672 0.06369,0.01581 0.114919,0.02624 0.175781,0.04102 0.192417,-0.551231 0.200607,-1.18224 0.38086,-1.740234 -0.0327,0.01056 -0.06495,0.02605 -0.09766,0.03516 -0.229403,0.0639 0.251562,-0.404974 0.351562,-0.621094 0.0386,-0.0834 0.04025,-0.179901 0.06055,-0.269531 0.531521,-1.180648 0.967364,-2.165522 1.908203,-2.94336 0.323257,-0.582679 0.701592,-1.215973 0.726562,-1.310547 0.337714,-0.297623 0.590226,-0.566813 0.820313,-0.802734 0.04004,-0.148127 0.326243,-0.526018 0.410156,-0.714844 0.011,-0.0019 0.111526,-0.04618 0.09766,-0.01758 -0.121415,0.249151 -0.186871,0.336032 -0.285157,0.515625 0.133087,-0.129163 0.265031,-0.236443 0.392578,-0.322265 0.02512,-0.07563 0.04951,-0.171621 0.07031,-0.21875 0.08539,-0.193365 0.208458,-0.327875 0.355469,-0.423828 0.08178,-0.278549 0.179302,-0.467648 0.52539,-0.783204 0.08418,-0.153478 0.170075,-0.306409 0.25,-0.453125 0.13756,-0.25252 0.497168,-0.291503 0.736328,-0.451171 0.02482,-0.01656 0.09649,-0.08189 0.15625,-0.136719 -0.01105,0.0033 -0.02215,0.0064 -0.0332,0.0098 0.198205,-0.165779 0.130431,-0.09866 0.0332,-0.0098 0.121713,-0.03669 0.243824,-0.07161 0.365235,-0.109375 0.03524,-0.01543 0.08223,-0.03105 0.123047,-0.04687 0.189946,-0.227554 0.388308,-0.445673 0.615234,-0.628907 0.06143,-0.07705 0.130812,-0.14785 0.1875,-0.228515 0.0645,-0.0918 -0.338902,0.292274 -0.263672,0.208984 0.261617,-0.289647 0.5161,-0.592667 0.822266,-0.833984 -0.406749,-0.425757 2.318673,-2.135176 2.537109,-2.279297 0.006,-0.0013 0.0038,-2.78e-4 0.0098,-0.002 0.0012,-0.0046 0.0017,-0.0089 0.01758,-0.01758 0.01278,-0.007 0.02625,-0.01264 0.03906,-0.01953 0.120896,-0.411373 1.74546,-1.306699 2.0625,-1.523438 0.0494,-0.0338 0.05786,-0.107784 0.103516,-0.146484 0.14536,-0.0624 0.173521,-0.266087 0.306641,-0.341797 0.227445,-0.129362 0.449932,-0.275364 0.679687,-0.404297 0.02205,-0.02751 0.07466,-0.06468 0.107422,-0.0957 0.163098,-0.192947 0.379912,-0.345874 0.650391,-0.464844 0.159467,-0.09674 0.301505,-0.169167 0.474609,-0.261719 0.212625,-0.168099 0.437492,-0.32031 0.646484,-0.458984 0.117402,-0.165488 0.236682,-0.328752 0.382813,-0.46875 0.24825,-0.23783 1.622017,-0.928024 1.929687,-1.00586 0.01339,-0.0034 0.02755,-0.0011 0.04102,-0.0039 0.10199,-0.107877 0.212908,-0.206334 0.339844,-0.285156 0.236792,-0.147043 0.516218,-0.188453 0.800781,-0.214844 h 0.002 v -0.002 c 0.156452,-0.300694 0.390501,-0.54311 0.865234,-0.777344 0.287752,-0.14197 0.606404,-0.335943 0.921876,-0.277343 0.136662,0.02538 0.26612,0.07508 0.394531,0.126953 0.03442,-0.0018 0.06068,-0.0063 0.0957,-0.0078 0.03774,-0.128647 0.53873,-0.410625 0.728516,-0.566406 0.672572,-0.552072 1.138294,-0.675945 1.599609,-0.574219 0.202141,-0.133072 0.375689,-0.235554 0.53125,-0.314453 -2.497255,-1.585783 -4.981991,-3.175798 -7.384766,-4.791016 z m -10.24414,16.660157 c -0.0039,0.0046 -0.0079,0.009 -0.01172,0.01367 0.04288,-0.01339 0.08603,-0.02565 0.128906,-0.03906 0.0087,-0.01023 0.01664,-0.02104 0.02539,-0.03125 -0.05338,0.0187 -0.09503,0.03818 -0.142578,0.05664 z m -0.01172,0.01367 c -0.03698,0.01155 -0.07433,0.02169 -0.111328,0.0332 -0.03524,0.01543 -0.09457,0.03208 -0.123047,0.04687 -0.18459,0.0959 -0.493268,0.65915 -0.333985,0.52539 0.211473,-0.177586 0.389578,-0.391309 0.56836,-0.605468 z m -2.144531,1.966797 c -0.03621,0.12332 -0.114511,0.303156 -0.210938,0.523437 0.07771,-0.03375 0.155238,-0.06396 0.240235,-0.07813 0.03245,-0.181782 0.09022,-0.362541 0.162109,-0.541016 -0.06655,0.02736 -0.131972,0.05691 -0.191406,0.0957 z m -0.210938,0.523437 c -0.0725,0.03149 -0.145309,0.07235 -0.214844,0.119141 -0.04726,0.142263 -0.09074,0.269436 -0.11914,0.394531 0.03475,-0.01697 0.0711,-0.03106 0.105469,-0.04883 0.09873,-0.184499 0.170894,-0.333212 0.228515,-0.464844 z m -0.607422,0.441406 c -0.06959,0.06754 -0.147363,0.139594 -0.222656,0.216797 -0.01423,0.05263 -7.85e-4,0.07747 0.06836,0.05273 0.0027,-9.83e-4 0.0051,-0.0029 0.0078,-0.0039 0.04486,-0.07673 0.09589,-0.173168 0.146484,-0.265625 z m -4.373047,7.869141 c -0.01697,0.04862 -0.03445,0.09734 -0.05469,0.144531 0.370428,0.171525 0.73898,0.346176 1.105469,0.523438 0.09005,-0.140566 0.186887,-0.265117 0.292968,-0.373047 -0.355779,-0.0682 -0.759956,-0.153189 -1.34375,-0.294922 z m -0.05469,0.144531 c -0.04931,-0.02283 -0.0975,-0.04702 -0.146485,-0.07031 -0.08168,0.331703 -0.118935,0.550332 0.02734,0.3125 0.04749,-0.0772 0.08377,-0.159697 0.119141,-0.242188 z m -0.146485,-0.07031 c 0.01026,-0.04168 0.01324,-0.06885 0.02539,-0.115235 -0.186369,-0.04625 -0.302166,-0.06737 -0.513672,-0.123047 0.158207,0.08576 0.324481,0.160409 0.488281,0.238282 z m -0.699218,0.09961 c -0.07595,0.200644 -0.142928,0.386995 -0.205078,0.542969 0.211886,-0.221595 0.407841,-0.445433 0.515625,-0.673828 0.09627,-0.203993 -0.096,-0.0759 -0.310547,0.130859 z m -0.205078,0.542969 c -0.09204,0.09626 -0.182277,0.191866 -0.275391,0.287109 7.6e-4,0.0026 0.0011,0.0053 0.002,0.0078 0.0759,-0.06315 0.161399,-0.137418 0.210938,-0.171875 0.0055,-0.0038 0.01709,-0.0129 0.02344,-0.01758 0.01145,-0.0287 0.02702,-0.07524 0.03906,-0.105469 z m -1.082032,1.46289 c -0.09697,0.239556 -0.201398,0.49655 -0.125,0.359375 0.07169,-0.128724 0.124122,-0.267326 0.179688,-0.404296 -0.01373,0.0068 -0.03405,0.03164 -0.05469,0.04492 z M 46.492188,77.394531 c -0.0056,-0.06378 -0.0084,-0.128352 -0.01758,-0.191406 -0.07013,0.05552 -0.14003,0.1113 -0.21289,0.164063 -0.01767,0.132202 -0.05508,0.268788 -0.08984,0.40625 0.126747,-0.08247 0.231205,-0.21962 0.320313,-0.378907 z m -0.320313,0.378907 c -0.0037,0.0024 -0.006,0.0074 -0.0098,0.0098 -0.03526,0.02187 -0.103412,0.06066 -0.15625,0.09375 -0.02096,0.158655 -0.03226,0.318748 -0.05859,0.476563 0.09725,-0.178488 0.173013,-0.376082 0.224609,-0.580078 z m 0.08984,-0.40625 c 0.01449,-0.108432 0.01602,-0.196384 0.02148,-0.292969 -0.07339,0.0897 -0.140382,0.183813 -0.210937,0.27539 -0.0059,0.05283 -0.0134,0.105407 -0.01953,0.158203 0.07023,-0.04622 0.141398,-0.09168 0.208985,-0.140624 z m 0.21289,-0.164063 c 0.05445,-0.0431 0.109717,-0.08569 0.16211,-0.130859 0.08602,-0.22993 0.141423,-0.446695 0.169922,-0.628907 -0.13325,0.154391 -0.26184,0.312587 -0.392579,0.46875 0.02344,0.09633 0.04624,0.19292 0.06055,0.291016 z m 2.371094,-5.117187 c 0.08641,-0.319548 0.136395,-0.5702 0.181641,-0.828126 -0.03441,0.01473 -0.06782,0.03124 -0.105469,0.04492 -0.132721,0.145659 -0.251717,0.301744 -0.376953,0.453125 -0.03599,0.253128 -0.09544,0.475254 -0.171875,0.673829 0.446643,-0.728235 0.528949,-0.706639 0.427734,-0.294922 0.01316,-0.01637 0.03468,-0.03292 0.04492,-0.04883 z m 0.181641,-0.828126 c 0.06513,-0.02788 0.131569,-0.05943 0.1875,-0.09375 0.02703,-0.08794 0.05216,-0.176885 0.07617,-0.265624 -0.08491,0.09119 -0.167546,0.183822 -0.251954,0.27539 -0.0051,0.0312 -0.0061,0.05175 -0.01172,0.08398 z m 2.078125,-3 c 0.04135,-0.06498 0.08247,-0.12835 0.11914,-0.207031 -0.03057,0.02349 -0.08327,0.04676 -0.123047,0.07031 -0.02472,0.06171 -0.05233,0.118071 -0.08008,0.171875 0.02697,-0.01205 0.05953,-0.02209 0.08398,-0.03516 z m 0.11914,-0.207031 c 0.0075,-0.0057 0.02449,-0.01189 0.03125,-0.01758 0.08461,-0.07115 0.143854,-0.144197 0.207032,-0.216797 -0.05748,0.04263 -0.12353,0.0844 -0.203125,0.126953 -0.0137,0.03293 -0.02065,0.07628 -0.03516,0.107422 z m 4.800782,-3.509765 c -0.02282,0.02273 -0.04556,0.04563 -0.06836,0.06836 -0.057,0.0565 -0.09916,0.130159 -0.169922,0.167969 -0.304729,0.1628 -0.357637,0.186523 -0.546875,0.285156 -0.0013,0.0047 -0.0026,0.009 -0.0039,0.01367 h 0.002 c 0.05321,0.03518 0.02533,0.09168 -0.04102,0.154297 -0.03536,0.132041 -0.07835,0.286581 -0.107422,0.402343 0.217942,-0.128173 0.445031,-0.240647 0.679687,-0.333984 0.110233,-0.264525 0.200926,-0.536008 0.25586,-0.757812 z m 22.478515,1.029296 c 0.02011,0.01019 0.04018,0.02054 0.06055,0.03125 0.01137,-0.0035 0.04246,-0.0123 0.05273,-0.01562 -0.03428,-0.0057 -0.0744,-0.01143 -0.113282,-0.01563 z m -24.08789,0.365235 c -0.06828,0.09766 -0.138268,0.193887 -0.208985,0.289062 0.05713,-0.0073 0.09762,-0.01415 0.154297,-0.02148 0.02764,-0.09038 0.03767,-0.17809 0.05469,-0.267578 z m 0.982422,0.06836 c -0.01804,0.0084 -0.03882,0.01274 -0.05664,0.02148 -0.08743,0.0055 -0.240728,0.03693 -0.378906,0.0625 -0.0041,0.01086 -0.0095,0.02051 -0.01367,0.03125 0.07082,-0.01164 0.1914,-0.02356 0.246093,-0.03516 0.04613,0.06829 0.121609,0.01509 0.203126,-0.08008 z m 21.617187,0.02734 c -0.284026,0.116484 -0.556521,0.327087 -0.839844,0.449219 0.06579,-0.0015 0.124668,-0.0045 0.189453,-0.0059 0.250461,-0.156242 0.511798,-0.293464 0.78711,-0.410156 l 0.002,-0.002 c -0.04623,-0.01024 -0.09244,-0.02101 -0.138672,-0.03125 z m -1.236328,0.585938 c 0.0751,0.03702 0.150365,0.07334 0.224609,0.113281 0.03576,-0.02639 0.0731,-0.05069 0.109375,-0.07617 -0.110115,-0.01848 -0.219674,-0.03853 -0.333984,-0.03711 z m -23.960938,0.27539 c -0.122452,0.147863 -0.246354,0.293973 -0.36914,0.441406 -0.03454,0.16135 -0.08251,0.301845 -0.132813,0.445313 0.106517,-0.05735 0.206705,-0.109904 0.292969,-0.154297 0.148237,-0.235876 0.206094,-0.479861 0.208984,-0.732422 z m 21.449219,0.626953 c -0.190806,0.140497 -0.362154,0.283828 -0.476562,0.392578 0.01173,4.57e-4 0.02343,0.0015 0.03516,0.002 0.147608,-0.12707 0.294003,-0.258879 0.441406,-0.394531 z m -22.771484,0.712891 c -0.01312,0.01034 -0.02634,0.02076 -0.02148,0.02344 1.62e-4,0.0018 -1.31e-4,0.0041 0,0.0059 0.0049,-1.49e-4 0.02014,-0.0047 0.02734,-0.0059 -0.0024,-0.0078 -0.0034,-0.01565 -0.0059,-0.02344 z m -1.261719,0.324219 c -0.06834,0.07102 -0.136739,0.141873 -0.205078,0.21289 0.04974,-0.0151 0.100396,-0.02828 0.150391,-0.04297 0.0187,-0.05644 0.03346,-0.114498 0.05469,-0.169921 z m 22.478516,0.01367 c -0.02613,0.01099 -0.05407,0.02042 -0.08008,0.03125 -0.13691,0.057 -0.342141,0.480871 -0.238281,0.375 0.119074,-0.12138 0.215696,-0.266942 0.31836,-0.40625 z m 7.722656,0.716797 c -0.105246,0.0233 -0.156521,0.03677 -0.248047,0.05859 -0.02886,0.02714 -0.05912,0.05289 -0.08789,0.08008 -0.088,0.0831 0.454098,-0.164832 0.335938,-0.138672 z m -6.763672,2.773438 c -0.02183,0.02776 -0.04298,0.056 -0.06445,0.08398 0.0039,0.0045 0.0078,0.0091 0.01172,0.01367 0.01927,-0.03426 0.04115,-0.0711 0.05273,-0.09766 z m 0.01953,0.185547 c 0.0066,0.0078 0.01297,0.01566 0.01953,0.02344 -0.0038,-0.0087 -0.01141,-0.01631 -0.01953,-0.02344 z M 47.638672,73.21875 c -0.07796,0.02421 -0.164867,0.03118 -0.253906,0.03516 -0.03113,0.06039 -0.06484,0.113235 -0.0957,0.169922 0.123351,0.07667 0.245598,0.146978 0.373047,0.240234 0.03108,-0.05655 0.04072,-0.06954 0.07031,-0.123046 -0.03196,-0.113839 -0.06126,-0.213069 -0.09375,-0.322266 z m -0.603516,0.660156 c -0.190757,0.293613 -0.423348,0.591002 -0.720703,0.921875 0.04089,0.08132 0.09081,0.201526 0.128906,0.271485 -0.02338,-0.09344 -0.04711,-0.188155 -0.03516,-0.285157 0.03866,-0.313388 0.263998,0.407111 0.427735,0.791016 0.160617,-0.05675 0.312862,-0.126832 0.451171,-0.21875 0.0226,-0.126773 0.04708,-0.246072 0.05664,-0.402344 0.0214,-0.34948 -0.02559,-0.754364 -0.251953,-1.021484 -0.01199,-0.01415 -0.04324,-0.04134 -0.05664,-0.05664 z m 16.011719,0.736328 c -0.153026,0.102035 -0.361253,0.27201 -0.478516,0.347657 -0.0481,0.031 -0.160171,0.161796 -0.113281,0.128906 0.206154,-0.144607 0.397208,-0.31357 0.591797,-0.476563 z M 80.125,74.666016 c -0.104472,0.0764 -0.245369,0.19216 -0.408203,0.330078 0.306972,0.475663 0.610323,0.950905 0.794922,1.232422 0.02837,-0.122507 0.05453,-0.247521 0.08203,-0.371094 -0.156557,-0.392867 -0.298965,-0.802488 -0.46875,-1.191406 z m -45.488281,0.0078 c 0.07308,0.287257 0.14963,0.592912 0.224609,0.890625 0,-0.291738 -0.01113,-0.583344 -0.0078,-0.875 -0.07173,-0.0076 -0.145704,-0.0049 -0.216797,-0.01563 z m 12.636719,0.78125 c -0.108503,0.08996 -0.222126,0.184893 -0.351563,0.291016 0.09257,0.0755 0.166562,0.09192 0.230469,0.07617 0.04774,-0.107814 0.09091,-0.225674 0.121094,-0.367188 z m 15.503906,0.07227 c -0.09716,0.144355 -0.188767,0.274932 -0.265625,0.365234 0.01934,-1.82e-4 0.05024,-0.0084 0.06445,-0.0059 0.07228,-0.118105 0.137221,-0.239293 0.205078,-0.359375 -0.0011,8.2e-5 -0.0028,-8.1e-5 -0.0039,0 z m 16.152344,0.158203 c -0.02037,0.01838 -0.03815,0.03619 -0.05859,0.05469 0.01735,0.04796 0.02563,0.09392 0.04687,0.142578 -0.0037,-0.06137 0.01018,-0.13286 0.01172,-0.197265 z m -12.988282,0.322265 c -0.06944,0.05016 -0.171896,0.118415 -0.240234,0.167969 0.0023,0.06858 0.0035,0.09305 0.0059,0.15625 0.113682,0.03274 0.223819,0.07294 0.326172,0.13086 -0.03514,-0.136453 -0.06603,-0.287072 -0.0918,-0.455079 z m -3.515625,0.126954 c -0.173544,0.153482 -0.367349,0.283494 -0.578125,0.392578 -7.61e-4,0.0206 -0.003,0.05263 -0.0039,0.07617 0.331833,-0.08868 0.382148,-0.09261 0.341797,-0.07813 0.08123,-0.129819 0.158727,-0.26093 0.240234,-0.390625 z m -0.240234,0.390625 c -0.0017,0.0028 -0.0041,0.0051 -0.0059,0.0078 0.03342,-0.009 0.06613,-0.0205 0.09961,-0.0293 0.06149,-0.01614 -0.105041,0.02554 -0.09375,0.02148 z m -0.0059,0.0078 c -0.113563,0.03066 -0.224944,0.06872 -0.337891,0.101563 -0.0066,0.159533 -0.0032,0.181998 -0.02344,0.490234 0.111669,-0.201272 0.238566,-0.395479 0.361329,-0.591797 z m -0.337891,0.101563 c 4.21e-4,-0.01018 0.0016,-0.02159 0.002,-0.03125 -0.104671,0.02797 -0.221739,0.06661 -0.335938,0.09961 -0.05612,0.02656 -0.110128,0.0552 -0.166015,0.08203 0.166352,-0.05143 0.332854,-0.101784 0.5,-0.15039 z m -1.503906,1.923828 c -0.328725,0.06995 -0.704901,0.07797 -1.048829,0.138672 -0.06287,0.238315 -0.121935,0.427457 -0.183593,0.652343 0.02061,0.0029 0.03736,-0.002 0.05859,0.002 0.389913,-0.26742 0.772455,-0.549635 1.173829,-0.792968 z M 45.71875,79.736328 c -0.02666,0.04745 -0.05009,0.09671 -0.07617,0.144531 -0.0349,0.138668 -0.06049,0.27953 -0.103516,0.416016 -0.02002,0.06351 -0.05297,0.122946 -0.07617,0.185547 0.03619,-0.03591 0.08043,-0.07348 0.08984,-0.103516 0.08249,-0.263098 0.123535,-0.449645 0.166016,-0.642578 z m 11.355469,1.595703 c -0.06806,0.08374 -0.09123,0.193919 -0.07031,0.326172 0.03815,-0.01632 0.07243,-0.03114 0.107422,-0.04492 -0.01409,-0.09486 -0.03482,-0.224136 -0.03711,-0.28125 z m 22.568359,0.177735 c -0.248272,0.02811 -0.525009,0.07218 -0.816406,0.123046 0.05427,0.05285 0.07081,0.124754 0.07227,0.205079 0.225509,0.03741 0.48107,0.06739 0.839843,0.08594 -0.0318,-0.138148 -0.0579,-0.276502 -0.0957,-0.414062 z m -0.853516,0.128906 c -0.03014,0.0053 -0.05337,0.0061 -0.08398,0.01172 -0.316448,0.05796 -0.194611,0.119105 0.07813,0.173828 -0.004,-0.07682 -0.0052,-0.149649 0.0059,-0.185547 z m -21.091796,0.3125 c -0.08127,0.146073 -0.189887,0.302227 -0.330078,0.476562 0.0232,0.03474 0.04491,0.05824 0.06836,0.0918 0.09322,-0.102735 0.184573,-0.207183 0.28125,-0.30664 0.0017,-0.02012 -0.002,-0.05532 0,-0.07227 0.0067,-0.058 0.0241,-0.120259 0.0332,-0.181641 -0.01752,-0.0027 -0.03522,-0.0052 -0.05273,-0.0078 z m 0.01953,0.261719 c -0.01218,0.144433 -0.0084,0.332676 0.0078,0.498047 0.09719,0.01909 0.189519,0.0595 0.283203,0.09766 0.200692,-0.228632 0.395581,-0.464298 0.578126,-0.710938 -0.214977,-0.03588 -0.429676,-0.07066 -0.644532,-0.105468 -0.07404,0.07433 -0.151502,0.145493 -0.224609,0.220703 z m 3.267578,0.0039 c -0.0033,6.2e-4 -0.0065,0.0013 -0.0098,0.002 -0.0027,0.0034 -0.0051,0.0044 -0.0078,0.0078 6.2e-4,0.0042 0.0013,0.0074 0.002,0.01172 0.0051,-0.0073 0.01031,-0.01439 0.01563,-0.02148 z m -16.158203,1.746094 c -0.289216,0.199533 -0.579597,0.398394 -0.867188,0.599609 -0.02951,0.237078 -0.05513,0.475644 -0.06836,0.714844 0.161823,-0.479812 0.247975,-0.46776 0.373047,-0.0625 0.393461,-0.570821 0.564315,-0.910484 0.5625,-1.251953 z m -6.441406,1.882812 c -0.07899,0.09998 -0.177799,0.224635 -0.177735,0.224609 0.05415,-0.01773 0.09403,-0.02817 0.138672,-0.04102 0.0092,-0.06075 0.02457,-0.122405 0.03906,-0.183594 z m -0.337891,1.607422 c 0.127143,0.253589 0.247039,0.447113 0.355469,0.578125 0.01151,-0.02787 0.01565,-0.0368 0.02539,-0.06055 0.01516,-0.116328 0.03321,-0.232757 0.02148,-0.347656 -0.134887,-0.05423 -0.270179,-0.107499 -0.402344,-0.169922 z m 0.355469,0.578125 c -0.08269,0.20012 -0.08806,0.228283 -0.175782,0.439453 -0.01437,8.6e-4 -0.04511,0.01177 -0.06055,0.01367 0.06931,0.259084 0.141909,0.512193 0.214843,0.765625 7.53e-4,-0.389959 0.0077,-0.780094 0.0332,-1.169922 5.4e-5,-0.01111 0.0033,-0.02209 0.0039,-0.0332 -0.0059,-0.0071 -0.0096,-0.0084 -0.01563,-0.01563 z m 5.316406,6.417969 c -0.658215,0.982659 -1.030013,1.124122 -0.380859,0.857422 0.208333,-0.195087 0.319807,-0.52517 0.380859,-0.857422 z m 4.865234,2.482422 c 0.05137,0.229898 0.115204,0.444147 0.197266,0.644531 0.191145,-0.253222 0.311642,-0.408768 0.359375,-0.466797 -0.186608,-0.05982 -0.313177,-0.107997 -0.556641,-0.177734 z m 0.56836,0.18164 c -0.04781,0.06984 0.05162,-0.06709 0.002,0.002 -7.8e-4,-2.5e-4 -0.0012,-0.0017 -0.002,-0.002 z m -2.695313,6.226559 c -0.149939,0.17181 -0.214866,0.36995 -0.228515,0.58789 0.04343,-0.0423 0.08673,-0.0864 0.132812,-0.13281 -0.0041,-0.0319 3.67e-4,-0.0868 -0.0059,-0.11328 0.0568,-0.18123 0.06349,-0.21162 0.101562,-0.3418 z m -0.08008,0.71485 c -0.03032,0.0128 -0.07385,0.0297 -0.0957,0.0391 -0.01972,0.008 -0.03372,0.0256 -0.05273,0.0352 0.0083,0.12943 0.03091,0.26708 0.06055,0.40625 0.03848,-0.0367 0.07185,-0.0777 0.109376,-0.11524 -0.0047,-0.12955 -0.01624,-0.23727 -0.02148,-0.36523 z m -0.490234,0.34765 c -0.201998,0.23198 -0.336578,0.53478 -0.386719,0.86524 0.170993,-0.16245 0.341005,-0.32587 0.517578,-0.48438 -0.05679,-0.12698 -0.111719,-0.26079 -0.130859,-0.38086 z m 2.582031,0.96875 c -0.09674,0.20084 -0.184056,0.40471 -0.251953,0.61524 -0.07247,0.22471 -0.04124,0.32 0.04687,0.33984 0.05049,-0.0447 0.07982,-0.057 0.125,-0.0937 -0.0027,-0.28855 0.01503,-0.57707 0.08008,-0.86133 z m -1.90625,0.57032 c -0.09975,-0.002 -0.323991,0.0447 -0.386719,0.12109 -0.08797,0.10711 -0.166368,0.2215 -0.24414,0.33594 0.19014,-0.1134 0.396752,-0.24221 0.65039,-0.41602 -0.007,-0.0164 -0.0126,-0.025 -0.01953,-0.041 z m -1.042969,0.0781 c 0.03921,0.18393 0.112973,0.35042 0.205078,0.5 0.0081,-0.005 0.01322,-0.007 0.02148,-0.0117 -0.08532,-0.17659 -0.166909,-0.34706 -0.226563,-0.48828 z m 0.271485,0.58594 c -0.0023,0.004 -0.0036,0.008 -0.0059,0.0117 0.01476,0.0197 0.02517,0.0439 0.04102,0.0625 -0.01444,-0.0291 -0.02134,-0.0461 -0.03516,-0.0742 z m 3.240234,0.22461 c -9.45e-4,0.066 0.0016,0.13107 0,0.19726 0.02252,-0.0687 0.03922,-0.0956 0.06055,-0.1582 -0.01999,-0.0134 -0.04134,-0.0277 -0.06055,-0.0391 z m -0.107422,0.64258 c -0.109692,0.23436 -0.229203,0.49503 -0.472656,0.93164 0.01922,0.0813 0.01685,0.16555 0.02734,0.24804 0.117522,-0.17449 0.230669,-0.32736 0.322265,-0.41211 0.0016,-0.003 0.0043,-0.009 0.0059,-0.0117 0.0012,-0.002 0.0044,10e-4 0.0059,0 0.0317,-0.0281 0.07037,-0.0719 0.0957,-0.084 -0.0147,0.0314 -0.02324,0.068 -0.03516,0.10156 0.01446,0.0117 0.02837,0.0256 0.04102,0.0312 0.0034,-0.26806 0.0065,-0.53649 0.0098,-0.80468 z m -0.695312,1.32226 c -0.08029,0.12819 -0.172923,0.24809 -0.261719,0.3711 0.105686,0.0966 0.113432,0.0704 0.261719,-0.3711 z m -0.769532,0.95899 c -9.84e-4,9.5e-4 -0.0029,4.5e-4 -0.0039,0.002 0.07945,0.15844 0.120566,0.24573 0.177734,0.36133 0.0069,-0.007 0.01447,-0.0143 0.02148,-0.0215 -0.126186,-0.24908 -0.244936,-0.4508 -0.195313,-0.34179 z m -0.519531,1.94336 c -0.05026,0.0783 -0.07363,0.10777 -0.126953,0.1914 0.01982,0.0315 0.03873,0.0664 0.05859,0.0977 0.0087,-0.004 0.02005,-0.0114 0.0293,-0.0156 0.0083,-0.0912 0.0234,-0.18222 0.03906,-0.27343 z" />
    <path
       style="opacity:0.52424239;fill:none;fill-opacity:1;stroke:none;display:inline"
       d="m 170.38125,667.76525 c -1.92234,6.09379 -2.43161,13.69837 -2.93313,19.74399 1.91818,-6.10327 5.62207,-11.84939 7.54025,-17.95266 1.74736,-6.91174 4.03043,-15.25206 5.77779,-22.1638 -3.16402,6.96939 -6.49829,15.35011 -10.38491,20.37247 z"
       id="path2992-9-5-1-4-3"
       inkscape:connector-curvature="0"
       sodipodi:nodetypes="ccccc" />
    <path
       id="path2992-9-5-1-4-5"
       transform="translate(54.28571,335.71492)"
       style="display:inline;opacity:0.52424239;fill:#ff9955;fill-opacity:1;stroke:none;stroke-width:4.14060783"
       d="m 135.69141,61.478516 c 0.0213,0.35861 0.066,0.5127 0.32421,0.5625 -0.0466,-0.1623 -0.10259,-0.318889 -0.15039,-0.480469 -0.0576,-0.0263 -0.11402,-0.04933 -0.17382,-0.08203 z m -7.67188,0.375 c -2.40277,1.61521 -4.88751,3.205235 -7.38476,4.791015 0.15556,0.0789 0.32911,0.181383 0.53125,0.314453 0.46131,-0.10172 0.92703,0.02215 1.5996,0.574219 0.18981,0.15579 0.69082,0.437756 0.72852,0.566406 0.035,0.002 0.0613,0.0058 0.0957,0.0078 0.12841,-0.05185 0.25785,-0.101553 0.39454,-0.126953 0.31546,-0.0586 0.63412,0.135379 0.92187,0.277343 0.47473,0.23423 0.70878,0.476654 0.86523,0.777344 v 0.002 h 0.002 c 0.28457,0.0264 0.56399,0.06779 0.80078,0.214844 0.12694,0.07882 0.23785,0.177286 0.33984,0.285156 0.0134,0.003 0.0276,9.63e-4 0.041,0.0039 0.30767,0.07784 1.68144,0.768029 1.92969,1.005859 0.14614,0.14 0.26541,0.30327 0.38281,0.46875 0.20899,0.13868 0.43386,0.290884 0.64648,0.458984 0.17311,0.09255 0.31514,0.165019 0.47461,0.261719 0.27048,0.11897 0.48729,0.271894 0.65039,0.464844 0.0327,0.031 0.0853,0.0682 0.10742,0.0957 0.22976,0.12893 0.45225,0.274937 0.67969,0.404297 0.13312,0.07571 0.16128,0.279397 0.30664,0.341797 0.0456,0.0387 0.0541,0.112684 0.10352,0.146484 0.31704,0.21674 1.9416,1.112068 2.0625,1.523438 0.0128,0.0069 0.0263,0.01253 0.0391,0.01953 0.0156,0.0086 0.0166,0.01258 0.0176,0.01758 0.006,0.0013 0.004,5.77e-4 0.01,0.002 0.21843,0.14412 2.94386,1.853547 2.53711,2.279297 0.30616,0.24132 0.56066,0.544334 0.82227,0.833984 0.0752,0.08329 -0.32817,-0.300784 -0.26367,-0.208984 0.0567,0.08067 0.1261,0.151516 0.1875,0.228516 0.22693,0.18323 0.42529,0.401346 0.61523,0.628906 0.0409,0.0159 0.0879,0.0315 0.12305,0.04687 0.12141,0.03777 0.24351,0.07268 0.36523,0.109375 -0.0972,-0.089 -0.16492,-0.154069 0.0332,0.01172 -0.0111,-0.004 -0.0222,-0.0087 -0.0332,-0.01172 0.0598,0.05482 0.13145,0.120119 0.15625,0.136719 0.23916,0.15967 0.59877,0.198654 0.73633,0.451171 0.0799,0.146721 0.1658,0.299645 0.25,0.453126 0.34609,0.31555 0.44359,0.504653 0.52539,0.783203 0.14702,0.09595 0.27007,0.230458 0.35547,0.423828 0.0208,0.04713 0.0452,0.14315 0.0703,0.21875 0.12755,0.08582 0.25949,0.193105 0.39258,0.322265 -0.0983,-0.17959 -0.16373,-0.266475 -0.28516,-0.515625 -0.0138,-0.0286 0.0867,0.01558 0.0977,0.01758 0.0839,0.188817 0.37016,0.566713 0.41016,0.714843 0.23009,0.23592 0.4826,0.505105 0.82031,0.802735 0.025,0.09457 0.4033,0.727875 0.72656,1.310546 0.94083,0.77784 1.37669,1.76271 1.90821,2.94336 0.0202,0.08963 0.0219,0.186131 0.0605,0.269531 0.1,0.21612 0.58096,0.684994 0.35156,0.621094 -0.0328,-0.0092 -0.065,-0.02456 -0.0977,-0.03516 0.18025,0.55799 0.18844,1.189004 0.38086,1.740234 0.0609,-0.0148 0.11208,-0.02522 0.17578,-0.04102 -0.13485,-0.51499 -0.36021,-1.257682 -0.44141,-1.638671 0.31241,0.34752 0.78813,0.804498 0.93164,1.230468 0.10057,0.29854 0.14728,0.392927 0.23438,0.623047 0.25971,0.25028 0.54227,0.620008 0.48047,0.830078 0.0139,0.0142 0.0272,0.02877 0.041,0.04297 0.16708,0.14206 0.33521,0.294587 0.37891,0.367188 0.0493,0.08182 0.0814,0.172965 0.12109,0.259765 0.03,0.05514 0.0582,0.111016 0.0762,0.166016 0.0251,0.06099 0.0576,0.118287 0.082,0.179687 0.002,-0.0271 -0.001,-0.03715 0.006,-0.09375 0.0211,0.057 0.0641,0.161207 0.10156,0.253906 0.0901,0.058 0.23821,0.185439 0.51172,0.642579 0.0338,0.0566 -0.0336,0.143418 0.002,0.199218 0.6305,1.00112 0.92438,0.933028 1.13281,1.960938 0.21023,0.35997 0.33456,0.593554 0.53125,1.246094 0.0197,0.06521 -0.14312,0.113165 -0.0508,0.197265 0.19377,0.50388 0.39976,1.00415 0.61328,1.5 0.0144,0.0125 0.0285,0.02696 0.043,0.03906 -0.0829,-0.38065 -0.14516,-0.59016 0.0312,0.02734 -0.0103,-0.0084 -0.0209,-0.01834 -0.0312,-0.02734 0.0112,0.05126 0.0138,0.07356 0.0254,0.130859 0.005,0.0104 0.009,0.02085 0.0137,0.03125 0.018,0.04044 -0.004,-0.08641 -0.008,-0.132812 0.0183,0.0149 0.0363,0.03453 0.0547,0.04883 0.0739,0.0573 0.0523,0.180278 0.0859,0.267578 0.157,0.40771 0.3189,0.813247 0.48632,1.216797 0.26711,0.64381 0.54398,1.284201 0.81641,1.925781 0.5283,1.24416 0.43931,2.20513 0.0332,2.79883 0.0247,0.12442 0.046,0.24724 -0.0195,0.31836 0.003,0.0136 0.003,0.0237 0.006,0.0371 0.21444,0.0842 0.32576,0.12062 0.39649,0.32812 0.006,0.004 0.0194,0.0136 0.0254,0.0176 0.22279,0.14819 0.36099,0.40318 0.48047,0.64258 0.2103,0.4215 0.28629,0.69809 0.27929,0.94336 0.44096,0.41583 0.66229,0.65365 0.55469,1.16601 0.18613,0.19061 0.36058,0.39205 0.5,0.61914 0.1502,0.24464 -0.053,0.55902 -0.12109,0.84766 0.22598,0.0967 0.3104,0.28412 0.4082,0.65039 0.93367,-2.04896 1.82192,-4.31534 2.66406,-6.76367 -1.08902,-0.26797 -2.06206,-1.49416 -2.07226,-3.681642 -8.4e-4,-0.17985 -0.002,-0.359202 0,-0.539062 0.003,-0.35125 -0.005,-0.703458 0,-1.054688 0.0194,-0.70197 0.02,0.10946 -0.0312,-0.90625 0.0429,-0.2733 0.0433,-0.284854 0.0684,-0.458984 -0.17214,-0.27793 -0.35312,-0.590529 -0.54102,-0.980469 -0.071,-0.14743 0,-0.707754 0,-0.871094 v -0.203125 c 0,-0.28972 3e-5,-0.57942 0,-0.86914 1e-5,-0.294 1.8e-4,-0.58686 0,-0.88086 -1.5e-4,-0.50516 -3.5e-4,-1.010465 0,-1.515625 -8.7e-4,-0.154146 0.002,-0.308518 0.002,-0.46289 -0.38352,-0.499971 -0.64062,-1.252082 -0.64062,-2.259766 v -2.330078 c -0.11925,-0.08319 -0.23971,-0.165303 -0.35352,-0.253906 -0.0311,-0.72948 -0.10121,-1.497658 -0.0586,-2.242188 -0.52027,-0.77761 -0.54995,-1.206587 -0.42188,-1.904297 -0.17778,-0.30942 -0.35687,-0.617507 -0.52929,-0.929687 0.0226,0.11982 0.0499,0.238875 0.0684,0.359375 0.0234,0.15206 -0.0693,-0.300925 -0.0918,-0.453125 -0.0487,-0.32921 -0.0489,-0.646735 -0.0215,-0.958985 -0.0562,-0.10053 -0.10263,-0.210345 -0.14453,-0.322265 -0.14291,-0.12321 -0.27969,-0.251025 -0.40234,-0.394531 -0.0929,-0.108691 -0.076,-0.249005 -0.0332,-0.396485 -0.53124,-0.33943 -0.8627,-0.734694 -0.9375,-1.464844 -0.52498,-0.51311 -0.51178,-0.786349 -0.48828,-1.599609 -0.0487,-0.16497 -0.0966,-0.323961 -0.14649,-0.488281 -0.0762,-0.22454 -0.14637,-0.439988 -0.20117,-0.642578 -0.01,-0.0153 -0.036,-0.03217 -0.043,-0.04687 -0.13079,-0.28217 -0.23457,-0.57694 -0.32617,-0.875 -0.2648,-0.16249 -0.46022,-0.444253 -0.72266,-0.976563 -0.0318,-0.03642 -0.0661,-0.07072 -0.0977,-0.107422 0.003,-0.0769 0.004,-0.03089 0.006,-0.08789 -0.14297,-0.29969 -0.28557,-0.610451 -0.50196,-1.087891 -0.13965,-0.1293 -0.28395,-0.276396 -0.37695,-0.410156 -0.0692,-0.06257 -0.13567,-0.139628 -0.19727,-0.236328 -0.28235,-0.15083 -0.50374,-0.342352 -0.8164,-0.613282 -0.16134,-0.12628 -0.39975,-0.354174 -0.65039,-0.615234 -0.29241,0.0996 -0.61573,0.250244 -0.83594,0.07227 -0.19908,-0.16095 -0.37373,-0.346919 -0.53906,-0.542969 -0.0976,-0.002 -0.19081,-0.02601 -0.28711,-0.03711 0.0885,0.202599 0.18849,0.398053 0.30859,0.558593 0.11497,0.10662 0.19161,0.173975 0.28711,0.234375 0.29426,0.10495 0.60612,0.166723 0.89453,0.289063 0.18105,0.0768 -0.39072,-0.06592 -0.57422,-0.136719 -0.15956,-0.06154 -0.24361,-0.103844 -0.32031,-0.152344 -0.08,-0.0285 -0.16503,-0.04594 -0.24023,-0.08594 -0.48748,-0.25955 -0.76133,-0.521585 -0.93946,-0.828125 -0.35927,-0.11687 -0.6877,-0.301281 -0.96679,-0.550782 -0.46841,-0.17546 -0.94931,-0.332887 -1.29493,-0.679687 -0.009,-0.0087 -0.0222,-0.02811 -0.0312,-0.03711 -0.0523,-0.0232 -0.10769,-0.04621 -0.15039,-0.06641 -0.17751,-0.0027 -0.35416,-0.01615 -0.52343,-0.06445 -0.47899,-0.13664 -1.84011,-0.749923 -1.35743,-0.626953 0.15623,0.0398 0.3074,0.09728 0.46094,0.146485 -0.63301,-0.303581 -1.47466,-0.572657 -1.85742,-1.253907 -0.014,-0.0249 -0.0244,-0.05408 -0.0371,-0.08008 -0.29251,-0.15479 -0.58443,-0.310054 -0.87695,-0.464844 -0.15264,-0.13122 -0.32156,-0.248279 -0.47266,-0.380859 -0.18595,-0.07734 -0.35894,-0.174865 -0.48437,-0.328125 -0.0328,-0.04006 -0.0501,-0.08916 -0.0801,-0.130859 -0.29935,-0.08639 -0.5963,-0.224285 -0.89649,-0.396485 -0.2533,-0.05201 -0.50719,-0.112312 -0.58789,-0.132812 -0.36653,-0.09304 -0.73073,-0.197875 -1.0957,-0.296875 0.0137,-0.04095 0.0833,-0.114047 0.041,-0.123047 -0.20603,-0.0429 -0.42041,0 -0.63086,0 h -3.0293 c -1.02771,0 -1.82628,-0.270101 -2.42383,-0.675781 z m 20.00781,8 c 0.0245,0.0131 0.057,0.02306 0.084,0.03516 -0.0278,-0.05381 -0.0554,-0.110175 -0.0801,-0.171875 -0.0397,-0.0235 -0.0925,-0.04681 -0.12305,-0.07031 0.0366,0.07868 0.0777,0.142032 0.11914,0.207032 z m -0.11914,-0.207032 c -0.0145,-0.03112 -0.0214,-0.07452 -0.0351,-0.107422 -0.0796,-0.04256 -0.14563,-0.08435 -0.20313,-0.126953 0.0632,0.0726 0.12243,0.145597 0.20703,0.216797 0.007,0.0057 0.0233,0.01158 0.0312,0.01758 z m 2.00977,3.113282 c 0.0559,0.0343 0.1224,0.06585 0.1875,0.09375 -0.006,-0.0323 -0.007,-0.0528 -0.0117,-0.08398 -0.0844,-0.09157 -0.16705,-0.18419 -0.25195,-0.27539 0.024,0.08874 0.0492,0.177725 0.0762,0.265625 z m 0.1875,0.09375 c 0.0452,0.25793 0.0952,0.508575 0.18164,0.828125 0.0102,0.0159 0.0317,0.03243 0.0449,0.04883 -0.10122,-0.41171 -0.0189,-0.433318 0.42774,0.294922 -0.0765,-0.19858 -0.13588,-0.420708 -0.17188,-0.673829 -0.12524,-0.151379 -0.24422,-0.307464 -0.37695,-0.453124 -0.0377,-0.0137 -0.0711,-0.03022 -0.10547,-0.04492 z m 2.39062,5.814453 c 0.0524,0.04515 0.10761,0.08776 0.16211,0.130859 0.0143,-0.09809 0.037,-0.194716 0.0606,-0.291016 -0.13074,-0.156159 -0.25933,-0.314357 -0.39258,-0.46875 0.0285,0.18221 0.0839,0.398977 0.16992,0.628907 z m 0.16211,0.130859 c -0.01,0.06306 -0.0116,0.127606 -0.0176,0.191406 0.0891,0.15929 0.19357,0.296407 0.32032,0.378907 -0.0347,-0.13746 -0.0721,-0.27405 -0.0898,-0.40625 -0.0729,-0.05276 -0.14279,-0.108563 -0.21289,-0.164063 z m 0.21289,0.164063 c 0.13488,0.09767 0.27748,0.187396 0.41797,0.279297 -0.14019,-0.195364 -0.28679,-0.385696 -0.43945,-0.572266 0.005,0.09658 0.007,0.184539 0.0215,0.292969 z m -5.07226,12.544921 c -0.0206,-0.0133 -0.041,-0.03792 -0.0547,-0.04492 0.0556,0.13697 0.10799,0.275576 0.17969,0.404297 0.0764,0.13718 -0.028,-0.119816 -0.125,-0.359376 z m -0.80664,-1.175781 c -0.0928,-0.0949 -0.18373,-0.189202 -0.27539,-0.285156 0.0121,0.03027 0.0277,0.07677 0.0391,0.105469 0.006,0.0047 0.0184,0.01358 0.0234,0.01758 0.0495,0.03446 0.13503,0.108675 0.21093,0.171875 0.001,-0.003 6.8e-4,-0.0068 0.002,-0.0098 z m -0.48047,-0.830078 c -0.21455,-0.20676 -0.40685,-0.334849 -0.31055,-0.130859 0.10779,0.2284 0.30374,0.452228 0.51563,0.673828 -0.0622,-0.15597 -0.12918,-0.342329 -0.20508,-0.542969 z m -0.72461,-0.214844 c 0.0122,0.04643 0.0151,0.07353 0.0254,0.115235 0.1638,-0.07787 0.33008,-0.152473 0.48828,-0.238282 -0.2115,0.05565 -0.3273,0.07675 -0.51367,0.123047 z m 0.0254,0.115235 c -0.049,0.0233 -0.0972,0.04751 -0.14648,0.07031 0.0353,0.08249 0.0716,0.164988 0.11914,0.242188 0.14627,0.23783 0.10936,0.0192 0.0273,-0.3125 z m -0.14648,0.07031 c -0.0202,-0.04723 -0.0377,-0.09593 -0.0547,-0.144531 -0.24515,0.05952 -0.35978,0.0765 -0.56445,0.123047 0.002,0.02007 -0.004,0.0319 -0.0313,0.01953 0.0262,0.09054 0.0502,0.181489 0.0781,0.271485 0.19161,-0.08878 0.38069,-0.180825 0.57227,-0.269532 z m -4.20508,-7.796875 c -0.0753,-0.07721 -0.15306,-0.149297 -0.22266,-0.216797 0.0506,0.09246 0.10159,0.188925 0.14649,0.265625 0.003,0.001 0.005,0.0029 0.008,0.0039 0.0692,0.0248 0.0826,-1.75e-4 0.0684,-0.05273 z m -0.61524,-0.539062 c -0.0695,-0.04684 -0.14234,-0.08764 -0.21484,-0.119141 0.0576,0.13163 0.12979,0.280344 0.22852,0.464844 0.0344,0.0178 0.0707,0.03183 0.10546,0.04883 -0.0284,-0.12509 -0.0718,-0.252261 -0.11914,-0.394531 z m -0.21484,-0.119141 c -0.0964,-0.22028 -0.17474,-0.400117 -0.21094,-0.523437 -0.0594,-0.0388 -0.1249,-0.0683 -0.1914,-0.0957 0.0719,0.178469 0.12971,0.359235 0.1621,0.541015 0.085,0.0141 0.16254,0.04443 0.24024,0.07813 z m -2.24414,-2.457031 c -0.037,-0.0115 -0.0743,-0.0217 -0.11133,-0.0332 0.17878,0.21416 0.35689,0.427878 0.56836,0.605468 0.15929,0.13376 -0.14939,-0.42949 -0.33398,-0.52539 -0.0284,-0.0148 -0.0879,-0.0315 -0.12305,-0.04687 z m -0.11133,-0.0332 c -0.004,-0.0047 -0.008,-0.0087 -0.0117,-0.01367 -0.0476,-0.0184 -0.0892,-0.03794 -0.14258,-0.05664 0.009,0.0102 0.0164,0.02105 0.0254,0.03125 0.0429,0.0134 0.086,0.02566 0.12891,0.03906 z m 4.83203,-12.390625 c 0.0549,0.2218 0.14563,0.493282 0.25586,0.757812 0.23466,0.09333 0.46175,0.205815 0.67969,0.333985 -0.029,-0.11576 -0.072,-0.270304 -0.10742,-0.402344 -0.0663,-0.0626 -0.0942,-0.119097 -0.041,-0.154297 h 0.002 c -0.001,-0.0047 -0.003,-0.0087 -0.004,-0.01367 -0.18924,-0.09863 -0.24215,-0.122356 -0.54688,-0.285156 -0.0707,-0.03782 -0.11292,-0.111469 -0.16992,-0.167969 -0.0228,-0.0228 -0.0456,-0.04566 -0.0684,-0.06836 z m -22.47851,1.029297 c -0.0389,0.0042 -0.079,0.0096 -0.11329,0.01563 0.0102,0.0033 0.0413,0.01162 0.0527,0.01563 0.0204,-0.0107 0.0405,-0.02105 0.0606,-0.03125 z m 24.08789,0.365234 c 0.017,0.08949 0.0271,0.177178 0.0547,0.267578 0.0567,0.0074 0.0972,0.01448 0.1543,0.02148 -0.0707,-0.09518 -0.14068,-0.191362 -0.20898,-0.289062 z m -0.98242,0.06836 c 0.0815,0.0952 0.15702,0.148364 0.20312,0.08008 0.0547,0.0116 0.17529,0.02356 0.24609,0.03516 -0.004,-0.0107 -0.01,-0.02035 -0.0137,-0.03125 -0.13818,-0.0256 -0.2915,-0.0575 -0.3789,-0.0625 -0.0178,-0.0088 -0.0386,-0.0135 -0.0566,-0.02148 z m -21.61719,0.02734 c -0.0463,0.0102 -0.0925,0.02105 -0.13867,0.03125 l 0.002,0.002 c 0.27531,0.11669 0.53664,0.253906 0.78711,0.410156 0.0648,0.001 0.12365,0.0039 0.18945,0.0059 -0.28332,-0.12214 -0.55581,-0.332739 -0.83984,-0.449219 z m 1.23633,0.585938 c -0.11431,-0.0014 -0.22388,0.01861 -0.33399,0.03711 0.0363,0.0255 0.0736,0.04977 0.10938,0.07617 0.0742,-0.03999 0.14951,-0.07628 0.22461,-0.113281 z m 23.96093,0.27539 c 0.003,0.25256 0.0608,0.496542 0.20899,0.732422 0.0863,0.04439 0.18646,0.097 0.29297,0.154297 -0.0503,-0.14346 -0.0983,-0.283963 -0.13282,-0.445312 -0.12279,-0.14743 -0.24669,-0.293547 -0.36914,-0.441407 z m -21.44922,0.626953 c 0.1474,0.13565 0.29381,0.267462 0.44141,0.394532 0.0118,0 0.0235,-0.0015 0.0352,-0.002 -0.1144,-0.108749 -0.28576,-0.252078 -0.47657,-0.392578 z m 22.77149,0.712891 c -0.003,0.0078 -0.004,0.01544 -0.006,0.02344 0.007,0.001 0.0223,0.0057 0.0273,0.0059 1.3e-4,-0.002 -1.7e-4,-0.0039 0,-0.0059 0.005,-0.0026 -0.008,-0.01314 -0.0215,-0.02344 z m 1.26172,0.324219 c 0.0212,0.05542 0.036,0.113522 0.0547,0.169922 0.05,0.0147 0.1007,0.02787 0.1504,0.04297 -0.0683,-0.07102 -0.13678,-0.14189 -0.20508,-0.21289 z m -22.47852,0.01367 c 0.10266,0.1393 0.19929,0.28487 0.31836,0.40625 0.10386,0.10587 -0.10137,-0.318 -0.23828,-0.375 -0.026,-0.0108 -0.054,-0.02025 -0.0801,-0.03125 z m -7.72265,0.716796 c -0.11816,-0.02616 0.42393,0.221772 0.33593,0.138672 -0.0288,-0.0272 -0.059,-0.05298 -0.0879,-0.08008 -0.0915,-0.0218 -0.14279,-0.03529 -0.24804,-0.05859 z m 31.79687,3.931641 c -0.0324,0.1092 -0.0617,0.208426 -0.0937,0.322266 0.0296,0.05355 0.0392,0.06645 0.0703,0.123047 0.12745,-0.09326 0.2497,-0.163535 0.37305,-0.240235 -0.0309,-0.05668 -0.0646,-0.109522 -0.0957,-0.169922 -0.089,-0.004 -0.17591,-0.01096 -0.25391,-0.03516 z m -22.08203,0.65625 c -0.0264,0.0053 -0.0353,0.03741 -0.0527,0.05664 0.0323,0.0139 0.0461,0.01635 0.0801,0.03125 0.16573,0.07271 0.057,0.06515 -0.125,0.02734 0.0614,0.03783 0.0595,0.08601 0.0234,0.140624 0.1616,0.04328 0.32174,0.09196 0.48242,0.138672 -0.0673,-0.152311 -0.10022,-0.258535 -0.004,-0.169922 0.12694,0.116209 0.16704,0.159524 0.2539,0.242188 0.0486,0.01443 0.0979,0.02651 0.14649,0.04102 0.0229,-5.96e-4 0.0449,-2.38e-4 0.0664,0 -0.34115,-0.291473 -0.68056,-0.546328 -0.87109,-0.507813 z m -0.66016,0.0039 c 0.0243,0.03801 0.0465,0.08881 0.0703,0.13086 0.0387,0.0088 0.20861,0.03862 0.21875,0.04102 -0.0638,-0.06656 -0.12425,-0.129539 -0.14844,-0.158203 -0.0383,-0.0048 -0.0972,-0.0092 -0.14063,-0.01367 z m 23.34571,0 c -0.0134,0.0153 -0.0446,0.04244 -0.0566,0.05664 -0.22636,0.26712 -0.27336,0.672004 -0.25196,1.021484 0.01,0.15627 0.034,0.275564 0.0566,0.402344 0.13831,0.09191 0.29057,0.16195 0.45118,0.21875 0.16372,-0.38391 0.38903,-1.104399 0.42773,-0.791016 0.0119,0.097 -0.0118,0.191757 -0.0352,0.285157 0.0381,-0.06996 0.088,-0.190185 0.12891,-0.271485 -0.29735,-0.33087 -0.52994,-0.628265 -0.7207,-0.921875 z m -23.14649,0.01953 c 0.0677,0.05393 0.1581,0.12402 0.24414,0.191406 0.0433,0.01118 0.0857,0.02558 0.12891,0.03711 -0.007,-0.05047 -0.0196,-0.107226 -0.0137,-0.138672 -0.10467,-0.02192 -0.21215,-0.04172 -0.35938,-0.08984 z m 7.13477,0.716797 c 0.19459,0.162998 0.38564,0.331952 0.59179,0.476562 0.0469,0.03289 -0.0652,-0.09791 -0.11328,-0.128906 -0.11726,-0.07565 -0.32548,-0.245617 -0.47851,-0.347656 z m 28.41015,0.05859 c -0.0711,0.0106 -0.14509,0.0076 -0.21679,0.01563 0.003,0.29166 -0.008,0.58326 -0.008,0.875 0.075,-0.29771 0.15151,-0.603365 0.22461,-0.890625 z m -12.63671,0.78125 c 0.0302,0.14152 0.0733,0.259378 0.12109,0.367188 0.0639,0.0157 0.13787,-6.88e-4 0.23047,-0.07617 -0.12943,-0.10612 -0.24308,-0.201016 -0.35156,-0.291016 z m -15.50782,0.07227 c 0.0679,0.12008 0.13278,0.241265 0.20508,0.359375 0.0142,-0.002 0.0452,0.0057 0.0645,0.0059 -0.0769,-0.0903 -0.16842,-0.220874 -0.26562,-0.365234 -0.001,-8e-5 -0.003,8e-5 -0.004,0 z m 0.35547,0.607422 c 0.0815,0.12969 0.15904,0.260805 0.24024,0.390625 -0.0403,-0.0145 0.01,-0.01059 0.34179,0.07813 -0.001,-0.0236 -0.003,-0.05557 -0.004,-0.07617 -0.21077,-0.10908 -0.40459,-0.239098 -0.57813,-0.392578 z m 0.14649,0.371093 c 0.0335,0.0088 0.0662,0.0203 0.0996,0.0293 -0.002,-0.0026 -0.004,-0.0055 -0.006,-0.0078 0.0113,0.004 -0.15565,-0.03758 -0.0937,-0.02148 z m 0.0996,0.0293 c 0.12276,0.19632 0.24966,0.390527 0.36133,0.591797 -0.0204,-0.30824 -0.0164,-0.330694 -0.0234,-0.490234 -0.11294,-0.03286 -0.22432,-0.07086 -0.3379,-0.101563 z m 0.3379,0.101563 c 0.16714,0.04861 0.33364,0.09899 0.5,0.15039 -0.0559,-0.0268 -0.10992,-0.05543 -0.16602,-0.08203 -0.1142,-0.033 -0.23127,-0.07161 -0.33594,-0.09961 0,0.0096 0.002,0.02105 0.002,0.03125 z m 15.99804,1.011719 c 0.0985,0.13731 0.19977,0.272165 0.28906,0.416015 0.11745,0.18923 -0.41815,-0.161897 -0.60742,-0.279297 -0.004,-0.0027 -0.006,-0.0075 -0.01,-0.0098 0.11956,0.47273 0.3377,0.936564 0.76562,1.115234 0.0727,0.03035 0.20857,0.07448 0.32227,0.113281 v -0.847656 c -0.25044,-0.171574 -0.50414,-0.340584 -0.75977,-0.507812 z m -20.55664,0.375 c -0.002,0.0021 -0.005,0.0037 -0.008,0.0059 0.002,0.0095 0.005,0.01854 0.01,0.0332 3.1e-4,4.64e-4 0.005,0.0034 0.006,0.0039 -0.004,-0.02657 -0.005,-0.03206 -0.008,-0.04297 z m 6.0625,0.537109 c 0.40138,0.24333 0.78392,0.525549 1.17383,0.792969 0.0212,-0.004 0.038,0.001 0.0586,-0.002 -0.0617,-0.22489 -0.12069,-0.414034 -0.18359,-0.652344 -0.34393,-0.06068 -0.72011,-0.06867 -1.04883,-0.138672 z m -5.37304,0.173828 c 0.0164,0.01618 0.0332,0.0336 0.0508,0.05078 0.0221,-8.76e-4 0.0443,-7.12e-4 0.0664,-0.002 -0.0233,-0.01331 -0.032,-0.03104 -0.0586,-0.04297 -0.0217,-0.0011 -0.042,-0.0034 -0.0586,-0.0059 z m 0.0625,0.0059 c 0.0299,0.01381 0.0599,0.02729 0.0898,0.04102 0.0117,-5.01e-4 0.0232,-0.0015 0.0352,-0.002 -0.0156,-0.0068 -0.0342,-0.03005 -0.0488,-0.0332 -0.0182,-0.0039 -0.048,-0.0044 -0.0762,-0.0059 z m 19.92968,0.998046 c 0.0425,0.19293 0.0835,0.379482 0.16602,0.642578 0.0149,0.04763 0.0824,0.108463 0.14258,0.164063 0.0103,-0.05159 0.027,-0.101244 0.0391,-0.152344 -0.11218,-0.21968 -0.22676,-0.439127 -0.34766,-0.654297 z m 0.43555,0.816407 c -0.006,0.0298 -0.007,0.06004 -0.0117,0.08984 0.044,0.0249 0.0767,0.03606 0.0566,-0.0059 -0.0138,-0.0286 -0.0309,-0.05548 -0.0449,-0.08398 z m -11.79102,0.779297 c -0.002,0.05712 -0.023,0.18635 -0.0371,0.28125 0.035,0.0138 0.0692,0.02862 0.10743,0.04492 0.0209,-0.13225 -0.002,-0.242475 -0.0703,-0.326171 z M 119.48633,83.125 c -0.0353,0.131794 -0.0613,0.264188 -0.0918,0.396484 0.24951,-0.01287 0.40971,-0.03792 0.58399,-0.06055 -0.15738,-0.10261 -0.33071,-0.220907 -0.49219,-0.335938 z m 21.94922,0.423828 c -0.0781,0.01181 -0.15621,0.02642 -0.23438,0.03906 0.13915,0.20385 0.28151,0.416124 0.41992,0.634765 0.0495,-0.06744 0.095,-0.123033 0.14453,-0.197265 -0.14017,-0.17433 -0.24877,-0.330493 -0.33007,-0.476563 z m 3.57422,5.910156 -0.002,0.002 c 8.8e-4,4.37e-4 0.007,0.0074 0.008,0.0078 -0.004,-0.0058 -0.002,-0.004 -0.006,-0.0098 z m 10.40429,6.585938 c 0.061,0.33225 0.17253,0.662332 0.38086,0.857422 0.64915,0.2667 0.27735,0.125238 -0.38086,-0.857422 z m -4.86523,2.482422 c -0.37163,0.106449 -0.56446,0.17998 -0.84961,0.271484 0.13014,0.186641 0.16006,0.26916 0.13086,0.283203 0.11967,0.09882 0.29733,0.251195 0.4082,0.341797 0.15903,-0.256494 0.23715,-0.568005 0.31055,-0.896484 z m 2.12695,6.408206 c 0.0381,0.13018 0.0448,0.16056 0.10156,0.34179 -0.006,0.0265 -0.002,0.0814 -0.006,0.11328 0.0461,0.0464 0.0894,0.0905 0.13282,0.13282 -0.0137,-0.21794 -0.0786,-0.41608 -0.22852,-0.58789 z m 0.0801,0.71484 c -0.005,0.12796 -0.0165,0.23571 -0.0215,0.36523 0.0376,0.0375 0.0709,0.0785 0.10937,0.11524 0.0297,-0.13917 0.0522,-0.27682 0.0606,-0.40625 -0.019,-0.01 -0.033,-0.0272 -0.0527,-0.0352 -0.0219,-0.009 -0.0654,-0.0263 -0.0957,-0.0391 z m 0.49023,0.34766 c -0.0191,0.12007 -0.0741,0.25388 -0.13086,0.38086 0.17658,0.15851 0.34659,0.32192 0.51758,0.48437 -0.0501,-0.33046 -0.18472,-0.63325 -0.38672,-0.86523 z m -0.66797,1.54101 c 2.3e-4,0.0187 0.004,0.0401 0.004,0.0586 0.23733,0.1615 0.43808,0.28849 0.61914,0.39648 -0.0778,-0.11444 -0.15614,-0.22883 -0.24414,-0.33594 -0.0615,-0.0749 -0.27645,-0.11928 -0.37891,-0.11914 z m -9.52929,0.0625 c 0.15306,0.56796 0.30021,1.14006 0.46484,1.70313 0.0183,-0.44486 0.0488,-0.86944 0.0606,-1.20703 -0.18174,-0.13135 -0.3576,-0.29834 -0.52539,-0.4961 z m 10.56445,0.0137 c -0.0597,0.14122 -0.14126,0.3117 -0.22656,0.48829 0.008,0.005 0.0135,0.007 0.0215,0.0117 0.0921,-0.14958 0.16588,-0.31607 0.20508,-0.5 z m -0.27148,0.58594 c -0.0139,0.0281 -0.0208,0.0451 -0.0352,0.0742 0.0158,-0.0186 0.0262,-0.0428 0.041,-0.0625 -0.002,-0.004 -0.004,-0.008 -0.006,-0.0117 z m -3.125,1.48828 c 6.9e-4,0.0612 8.5e-4,0.12244 0.002,0.1836 0.0126,-0.006 0.0265,-0.0204 0.041,-0.0312 -0.012,-0.0336 -0.0205,-0.0702 -0.0352,-0.10157 0.0253,0.0121 0.064,0.0559 0.0957,0.084 0.002,0.001 0.005,-0.002 0.006,0 0.002,0.003 0.004,0.009 0.006,0.0117 0.0916,0.0847 0.20475,0.23762 0.32227,0.41211 0.0104,-0.0825 0.008,-0.16675 0.0273,-0.24805 -0.047,-0.0843 -0.0532,-0.10741 -0.0918,-0.17969 -0.12468,-0.0283 -0.24924,-0.0729 -0.37304,-0.13086 z m 0.6875,0.70117 c 0.14829,0.44151 0.15603,0.4677 0.26172,0.3711 -0.0888,-0.12301 -0.18142,-0.2429 -0.26172,-0.3711 z m 0.76953,0.95899 c 0.0496,-0.10901 -0.0691,0.0927 -0.19531,0.3418 l 0.0215,0.0215 c 0.0572,-0.1156 0.0983,-0.20289 0.17773,-0.36133 -0.001,-0.001 -0.003,-6e-4 -0.004,-0.002 z m 0.51953,1.94336 c 0.0157,0.0912 0.0311,0.18224 0.0391,0.27344 0.009,0.004 0.0203,0.0116 0.0293,0.0156 0.0199,-0.0313 0.0388,-0.0662 0.0586,-0.0977 -0.0534,-0.0836 -0.0767,-0.11311 -0.12695,-0.19141 z" />
  </g>
</svg>